<svg xmlns="http://www.w3.org/2000/svg" xmlns:xlink="http://www.w3.org/1999/xlink" viewBox="0,0,256,256" width="96px" height="96px"><defs><linearGradient x1="-12.806" y1="-14.704" x2="46.888" y2="44.99" gradientUnits="userSpaceOnUse" id="color-1"><stop offset="0" stop-color="#42ec23"></stop><stop offset="1" stop-color="#262626" stop-opacity="0.8"></stop></linearGradient></defs><g transform="translate(40.96,40.96) scale(0.68,0.68)"><g fill="#0f0315" fill-rule="nonzero" stroke="none" stroke-width="1" stroke-linecap="butt" stroke-linejoin="miter" stroke-miterlimit="10" stroke-dasharray="" stroke-dashoffset="0" font-family="none" font-weight="none" font-size="none" text-anchor="none" style="mix-blend-mode: normal"><path d="M-60.23529,316.23529v-376.47059h376.47059v376.47059z" id="bgRectangle"></path></g><g fill="url(#color-1)" fill-rule="nonzero" stroke="none" stroke-width="1" stroke-linecap="butt" stroke-linejoin="miter" stroke-miterlimit="10" stroke-dasharray="" stroke-dashoffset="0" font-family="none" font-weight="none" font-size="none" text-anchor="none" style="mix-blend-mode: normal"><g transform="scale(5.33333,5.33333)"><path d="M31.959,17.737c2.66,-3.725 9.676,-11.793 14.013,-10.237c0.923,0.286 1.755,1.046 1.923,2.025c0.611,2.552 -1.496,4.17 -5.418,10.566c-4.795,7.823 -6.267,13.013 -8.394,15.104c-4.176,4.665 -12.637,2.61 -11.631,-10.119c-5.028,8.221 -6.272,18.244 -14.777,16.554c-8.927,-2.418 -8.51,-23.45 -6.435,-28.874c0.142,-0.691 0.485,-1.314 0.789,-1.941c2.115,-4.092 7.016,-4.118 9.105,-1.69c2.143,2.492 1.518,7.609 1.188,10.958c2.213,-3.848 6.053,-9.344 9.598,-12.072c5.532,-4.117 11.918,-1.457 10.039,9.726z"></path></g></g></g></svg>