<svg xmlns="http://www.w3.org/2000/svg" xmlns:xlink="http://www.w3.org/1999/xlink" viewBox="0,0,256,256" width="128px" height="128px"><defs><linearGradient x1="17.773" y1="23.83" x2="17.773" y2="40.038" gradientUnits="userSpaceOnUse" id="color-1"><stop offset="0" stop-color="#45e151"></stop><stop offset="1" stop-color="#3b9351"></stop></linearGradient><linearGradient x1="40.436" y1="23.83" x2="40.436" y2="40.038" gradientUnits="userSpaceOnUse" id="color-2"><stop offset="0" stop-color="#45e151"></stop><stop offset="1" stop-color="#3b9351"></stop></linearGradient><linearGradient x1="32" y1="4.33" x2="32" y2="59.673" gradientUnits="userSpaceOnUse" id="color-3"><stop offset="0" stop-color="#36e53a"></stop><stop offset="1" stop-color="#214619"></stop></linearGradient></defs><g fill="#211d1d" fill-rule="nonzero" stroke="none" stroke-width="1" stroke-linecap="butt" stroke-linejoin="miter" stroke-miterlimit="10" stroke-dasharray="" stroke-dashoffset="0" font-family="none" font-weight="none" font-size="none" text-anchor="none" style="mix-blend-mode: normal"><path d="M0,256v-256h256v256z" id="bgRectangle"></path></g><g fill="none" fill-rule="nonzero" stroke="none" stroke-width="1" stroke-linecap="butt" stroke-linejoin="miter" stroke-miterlimit="10" stroke-dasharray="" stroke-dashoffset="0" font-family="none" font-weight="none" font-size="none" text-anchor="none" style="mix-blend-mode: normal"><g transform="scale(4,4)"><path d="M25.127,37.476c-0.058,-0.106 -5.963,-10.721 -16.464,-14.54l0.684,-1.879c11.226,4.082 17.284,14.998 17.536,15.461z" fill="url(#color-1)"></path><path d="M43.706,39.356c-0.987,-2.564 -3.783,-9.028 -8.407,-13.652l1.414,-1.414c4.895,4.895 7.826,11.664 8.86,14.348z" fill="url(#color-2)"></path><path d="M52.016,9.399c-1.641,-3.088 -5.535,-4.293 -8.679,-2.688c-1.54,0.786 -2.671,2.117 -3.185,3.748c-0.507,1.608 -0.349,3.315 0.443,4.806c0.035,0.067 1.519,2.975 2.546,7.681c-5.4,-6.575 -11.209,-9.773 -11.497,-9.929l-0.197,-0.101l-0.045,0.091c-1.729,-0.986 -3.911,-1.136 -5.835,-0.209c-1.5,0.722 -2.618,1.977 -3.15,3.533c-0.523,1.534 -0.412,3.179 0.313,4.626c0.02,0.041 0.63,1.316 1.277,3.314c-3.81,-3.608 -7.371,-5.566 -7.849,-5.821c-2.997,-1.603 -6.762,-0.52 -8.393,2.415c-0.788,1.418 -0.973,3.05 -0.518,4.594c0.462,1.57 1.526,2.866 2.997,3.652c0.115,0.062 11.488,6.271 11.417,16.873v0c-0.01,0.395 0.019,0.793 0.089,1.191c0.282,1.614 1.188,3.02 2.552,3.959c1.045,0.721 2.272,1.102 3.55,1.102c2.014,0 3.908,-0.966 5.067,-2.582c2.664,-3.717 4.053,-7.683 4.643,-11.568c1.561,3.7 2.338,7.914 2.29,11.914h0.046c-0.36,1 -0.317,2.586 0.147,3.843c0.595,1.605 1.791,2.873 3.37,3.584c0.85,0.384 1.752,0.574 2.681,0.574c2.506,0 4.804,-1.448 5.854,-3.686c11.082,-23.627 0.522,-44.057 0.066,-44.916zM11.186,27.346c-0.992,-0.53 -1.71,-1.401 -2.019,-2.452c-0.303,-1.026 -0.18,-2.111 0.347,-3.058c1.104,-1.986 3.662,-2.715 5.702,-1.623c0.551,0.294 5.432,2.983 9.813,8.007c0.813,4.187 0.934,9.459 -1.825,13.795c-2.228,-9.383 -11.91,-14.612 -12.018,-14.669zM31.295,48.488c-0.785,1.095 -2.071,1.748 -3.442,1.748c-0.87,0 -1.705,-0.259 -2.415,-0.748c-0.918,-0.633 -1.527,-1.576 -1.716,-2.656c-0.187,-1.067 0.062,-2.145 0.697,-3.031c6.917,-9.65 0.169,-23.602 0.102,-23.734c-0.485,-0.969 -0.56,-2.065 -0.211,-3.089c0.357,-1.045 1.112,-1.89 2.125,-2.377c0.597,-0.288 1.229,-0.424 1.853,-0.424c1.551,0 3.044,0.844 3.771,2.296c0.371,0.743 9.003,18.388 -0.764,32.015zM37.905,34.196c0.196,-7.229 -1.966,-13.644 -3.217,-16.717c2.625,2.036 6.113,5.255 9.155,9.742c0.577,5.152 0.33,11.576 -2.216,18.49c-0.479,-4.087 -1.724,-7.945 -3.722,-11.515zM50.139,53.463c-0.722,1.539 -2.309,2.533 -4.043,2.533c-0.644,0 -1.269,-0.135 -1.858,-0.401c-1.087,-0.489 -1.91,-1.364 -2.316,-2.463c-0.397,-1.073 -0.348,-2.236 0.14,-3.274c4.078,-8.695 4.5,-16.835 3.755,-23.128l0.08,-0.053c-0.034,-0.052 -0.069,-0.099 -0.104,-0.15c-0.904,-7.341 -3.383,-12.113 -3.43,-12.2c-0.539,-1.014 -0.646,-2.175 -0.303,-3.268c0.352,-1.115 1.128,-2.027 2.188,-2.567c0.656,-0.335 1.36,-0.494 2.054,-0.494c1.606,0 3.158,0.853 3.948,2.34c0.436,0.821 10.552,20.393 -0.111,43.125z" fill="url(#color-3)"></path></g></g><g fill="#fff5f5" fill-rule="nonzero" stroke="none" stroke-width="1" stroke-linecap="butt" stroke-linejoin="miter" stroke-miterlimit="10" stroke-dasharray="" stroke-dashoffset="0" font-family="none" font-weight="none" font-size="none" text-anchor="none" style="mix-blend-mode: normal"><g><path d="M36.165,25.825v2.91h-2.14l-0.37,-1.95c-0.24667,-0.16 -0.61,-0.29667 -1.09,-0.41c-0.47333,-0.12 -0.97667,-0.18 -1.51,-0.18v0c-0.78,0 -1.38333,0.16667 -1.81,0.5c-0.42667,0.32667 -0.64,0.75 -0.64,1.27v0c0,0.48 0.22333,0.87667 0.67,1.19c0.44667,0.30667 1.21667,0.63333 2.31,0.98v0c1.56667,0.43333 2.75667,1.01 3.57,1.73c0.80667,0.71333 1.21,1.65333 1.21,2.82v0c0,1.22 -0.48,2.18 -1.44,2.88c-0.96667,0.70667 -2.23667,1.06 -3.81,1.06v0c-1.12667,0 -2.14333,-0.18 -3.05,-0.54c-0.91333,-0.36 -1.67,-0.85667 -2.27,-1.49v0v-2.97h2.2l0.31,2.03c0.28667,0.23333 0.67333,0.42667 1.16,0.58c0.49333,0.15333 1.04333,0.23 1.65,0.23v0c0.78,0 1.37333,-0.16 1.78,-0.48c0.40667,-0.32 0.61,-0.74667 0.61,-1.28v0c0,-0.54667 -0.19333,-0.98667 -0.58,-1.32c-0.38667,-0.33333 -1.06667,-0.64667 -2.04,-0.94v0c-1.68667,-0.48667 -2.96,-1.06667 -3.82,-1.74c-0.86667,-0.66667 -1.3,-1.58333 -1.3,-2.75v0c0,-1.15333 0.48667,-2.09667 1.46,-2.83c0.98,-0.72667 2.20667,-1.1 3.68,-1.12v0c1.09333,0 2.09,0.16333 2.99,0.49c0.9,0.33333 1.65667,0.77667 2.27,1.33zM47.575,38.415h-3.29c-0.07333,-0.17333 -0.14,-0.35333 -0.2,-0.54c-0.06,-0.18667 -0.10667,-0.37333 -0.14,-0.56v0c-0.34,0.38667 -0.75,0.7 -1.23,0.94c-0.48667,0.24667 -1.04333,0.37 -1.67,0.37v0c-1.03333,0 -1.85667,-0.28333 -2.47,-0.85c-0.60667,-0.56 -0.91,-1.32667 -0.91,-2.3v0c0,-0.98667 0.39667,-1.75 1.19,-2.29c0.79333,-0.54 1.96,-0.81 3.5,-0.81v0h1.45v-1.04c0,-0.50667 -0.14667,-0.9 -0.44,-1.18c-0.28667,-0.28 -0.71667,-0.42 -1.29,-0.42v0c-0.32667,0 -0.61667,0.03667 -0.87,0.11c-0.25333,0.07333 -0.46,0.16333 -0.62,0.27v0l-0.18,1.13h-2.15l0.01,-2.34c0.52,-0.35333 1.11667,-0.65 1.79,-0.89c0.67333,-0.24 1.40667,-0.36 2.2,-0.36v0c1.30667,0 2.37,0.32 3.19,0.96c0.82,0.64 1.23,1.55333 1.23,2.74v0v4.36c0,0.16667 0,0.32 0,0.46c0.00667,0.14667 0.01667,0.28333 0.03,0.41v0l0.87,0.12zM41.815,36.515v0c0.43333,0 0.82333,-0.09333 1.17,-0.28c0.35333,-0.18667 0.62667,-0.42 0.82,-0.7v0v-1.61h-1.45c-0.60667,0 -1.06667,0.14 -1.38,0.42c-0.31333,0.28667 -0.47,0.62667 -0.47,1.02v0c0,0.36 0.11667,0.64 0.35,0.84c0.23333,0.20667 0.55333,0.31 0.96,0.31zM48.705,38.415v-1.71l1.37,-0.29v-6.56h-1.57v-2.01h1.57v-1.17c0,-1.18667 0.34333,-2.1 1.03,-2.74c0.68,-0.64 1.64,-0.96 2.88,-0.96v0c0.24,0 0.48667,0.01667 0.74,0.05c0.24667,0.04 0.52,0.09333 0.82,0.16v0l-0.24,2.11c-0.16,-0.02 -0.31333,-0.04 -0.46,-0.06c-0.14667,-0.02 -0.31667,-0.03 -0.51,-0.03v0c-0.46,0 -0.81,0.12667 -1.05,0.38c-0.23333,0.25333 -0.35,0.61667 -0.35,1.09v0v1.17h2.09v2.01h-2.09v6.56l1.37,0.29v1.71zM60.815,38.625v0c-1.52667,0 -2.74667,-0.49 -3.66,-1.47c-0.90667,-0.97333 -1.36,-2.21333 -1.36,-3.72v0v-0.39c0,-1.56667 0.43,-2.86 1.29,-3.88c0.86,-1.01333 2.01667,-1.51667 3.47,-1.51v0c1.42667,0 2.53333,0.43 3.32,1.29c0.78667,0.86 1.18,2.02 1.18,3.48v0v1.56h-6.3l-0.02,0.06c0.04667,0.69333 0.27667,1.26333 0.69,1.71c0.41333,0.45333 0.97667,0.68 1.69,0.68v0c0.63333,0 1.15667,-0.06333 1.57,-0.19c0.42,-0.12667 0.87667,-0.32667 1.37,-0.6v0l0.77,1.75c-0.43333,0.34667 -0.99667,0.63667 -1.69,0.87c-0.69333,0.24 -1.46667,0.36 -2.32,0.36zM60.555,29.855v0c-0.52667,0 -0.94333,0.2 -1.25,0.6c-0.30667,0.40667 -0.49333,0.93667 -0.56,1.59v0l0.03,0.05h3.49v-0.25c0,-0.60667 -0.14,-1.09 -0.42,-1.45c-0.28667,-0.36 -0.71667,-0.54 -1.29,-0.54zM89.655,24.195v1.72l-1.17,0.15l-2.88,12.35h-2.65l-2.6,-9.38h-0.06l-2.61,9.38h-2.65l-2.9,-12.35l-1.16,-0.15v-1.72h5.24v1.72l-1.3,0.22l1.63,7.8l0.06,0.01l2.66,-9.75h2.1l2.69,9.75l0.06,-0.01l1.62,-7.8l-1.3,-0.22v-1.72zM100.265,38.415h-3.29c-0.08,-0.17333 -0.15,-0.35333 -0.21,-0.54c-0.05333,-0.18667 -0.09667,-0.37333 -0.13,-0.56v0c-0.34,0.38667 -0.75333,0.7 -1.24,0.94c-0.48667,0.24667 -1.04,0.37 -1.66,0.37v0c-1.04,0 -1.86333,-0.28333 -2.47,-0.85c-0.60667,-0.56 -0.91,-1.32667 -0.91,-2.3v0c0,-0.98667 0.39667,-1.75 1.19,-2.29c0.79333,-0.54 1.95667,-0.81 3.49,-0.81v0h1.46v-1.04c0,-0.50667 -0.14667,-0.9 -0.44,-1.18c-0.29333,-0.28 -0.72667,-0.42 -1.3,-0.42v0c-0.32667,0 -0.61667,0.03667 -0.87,0.11c-0.25333,0.07333 -0.45667,0.16333 -0.61,0.27v0l-0.19,1.13h-2.15l0.01,-2.34c0.52,-0.35333 1.11667,-0.65 1.79,-0.89c0.68,-0.24 1.41667,-0.36 2.21,-0.36v0c1.30667,0 2.37,0.32 3.19,0.96c0.81333,0.64 1.22,1.55333 1.22,2.74v0v4.36c0,0.16667 0.00333,0.32 0.01,0.46c0,0.14667 0.01,0.28333 0.03,0.41v0l0.87,0.12zM94.505,36.515v0c0.42667,0 0.81667,-0.09333 1.17,-0.28c0.35333,-0.18667 0.62667,-0.42 0.82,-0.7v0v-1.61h-1.46c-0.6,0 -1.05667,0.14 -1.37,0.42c-0.31333,0.28667 -0.47,0.62667 -0.47,1.02v0c0,0.36 0.11667,0.64 0.35,0.84c0.22667,0.20667 0.54667,0.31 0.96,0.31zM102.455,25.195l-1.53,-0.3v-1.71h4.38v13.23l1.38,0.29v1.71h-5.61v-1.71l1.38,-0.29zM108.825,25.195l-1.52,-0.3v-1.71h4.38v13.23l1.37,0.29v1.71h-5.6v-1.71l1.37,-0.29zM119.045,38.625v0c-1.52667,0 -2.74333,-0.49 -3.65,-1.47c-0.91333,-0.97333 -1.37,-2.21333 -1.37,-3.72v0v-0.39c0,-1.56667 0.43,-2.86 1.29,-3.88c0.86667,-1.01333 2.02333,-1.51667 3.47,-1.51v0c1.42667,0 2.53333,0.43 3.32,1.29c0.79333,0.86 1.19,2.02 1.19,3.48v0v1.56h-6.31l-0.02,0.06c0.05333,0.69333 0.28667,1.26333 0.7,1.71c0.41333,0.45333 0.97333,0.68 1.68,0.68v0c0.63333,0 1.15667,-0.06333 1.57,-0.19c0.42,-0.12667 0.87667,-0.32667 1.37,-0.6v0l0.77,1.75c-0.43333,0.34667 -0.99667,0.63667 -1.69,0.87c-0.69333,0.24 -1.46667,0.36 -2.32,0.36zM118.785,29.855v0c-0.52667,0 -0.94333,0.2 -1.25,0.6c-0.3,0.40667 -0.48667,0.93667 -0.56,1.59v0l0.03,0.05h3.49v-0.25c0,-0.60667 -0.14,-1.09 -0.42,-1.45c-0.28667,-0.36 -0.71667,-0.54 -1.29,-0.54zM126.005,25.265h2.84v2.58h1.86v2.01h-1.86v5.38c0,0.40667 0.08667,0.7 0.26,0.88c0.16667,0.17333 0.39333,0.26 0.68,0.26v0c0.19333,0 0.36333,-0.01 0.51,-0.03c0.14667,-0.01333 0.31333,-0.04 0.5,-0.08v0l0.24,2.06c-0.32,0.1 -0.63667,0.17333 -0.95,0.22c-0.31333,0.05333 -0.65,0.08 -1.01,0.08v0c-0.98667,0 -1.74333,-0.27333 -2.27,-0.82c-0.53333,-0.54 -0.8,-1.39333 -0.8,-2.56v0v-5.39h-1.55v-2.01h1.55z"></path></g></g></svg>